C:\Users\Nicos\Documents\OpenSimProjects\SprintingProject\Study1\PredictiveResults\IC_pred_Sprinting_optimum_28-October-2023__01-01-41_p02_maxVel_01___HTD_Minus_2_GRF.mot
version=1
nRows=106
nColumns=10
inDegrees=yes
endheader
time	ground_force_vx	ground_force_vy	ground_force_vz	ground_force_px	ground_force_py	ground_force_pz	ground_torque_x	ground_torque_y	ground_torque_z
0.056000	-67.166531	35.286165	12.166579	0.345896	0.000000	0.432120	-15.247868	-33.223045	12.205327
0.056630	-103.554933	54.513961	17.291304	0.347208	0.000000	0.432022	-23.551210	-50.723487	18.927679
0.058620	-244.592585	130.510822	23.162314	0.350710	0.000000	0.431683	-56.339269	-113.616892	45.771410
0.060062	-372.771325	204.635615	14.362445	0.351557	0.000000	0.432207	-88.444881	-165.900447	71.941011
0.060692	-445.405237	250.140134	7.287995	0.350965	0.000000	0.432549	-108.197743	-194.808059	87.790510
0.062681	-712.106040	437.054532	-27.945112	0.348547	0.000000	0.433305	-189.377778	-297.640505	152.334197
0.064124	-905.621241	610.616373	-63.865674	0.346810	0.000000	0.433892	-264.941574	-368.614131	211.767986
0.064753	-979.349560	697.561468	-82.209679	0.345956	0.000000	0.434119	-302.824558	-393.858838	241.325228
0.066743	-1147.254680	1042.401460	-140.076127	0.343050	0.000000	0.434659	-453.089662	-443.736001	357.595314
0.068185	-1199.346175	1387.160916	-157.737915	0.337295	0.000000	0.434516	-602.743576	-452.301653	467.882139
0.068815	-1196.683527	1568.418558	-154.667866	0.334020	0.000000	0.434482	-681.450033	-446.533141	523.883803
0.070805	-1053.488695	2152.621125	-107.277868	0.324690	0.000000	0.434457	-935.220593	-377.727903	698.933482
0.072247	-849.380212	2534.394028	-45.786766	0.319078	0.000000	0.434366	-1100.854370	-293.227132	808.670431
0.072877	-743.162563	2683.008720	-17.745846	0.316883	0.000000	0.434299	-1165.229066	-250.595963	850.199209
0.074867	-378.611961	3091.646705	50.908701	0.311099	0.000000	0.433994	-1341.756843	-105.255643	961.808710
0.076309	-246.137194	3355.505645	54.829450	0.308020	0.000000	0.433662	-1455.155512	-49.137297	1033.564106
0.076939	-196.853845	3465.980826	42.052449	0.307129	0.000000	0.433501	-1502.507820	-24.532341	1064.502604
0.078929	-65.389134	3778.243203	-2.585371	0.305674	0.000000	0.433127	-1636.460121	39.181928	1154.910158
0.080371	32.799376	3957.037119	-113.013685	0.305657	0.000000	0.432618	-1711.885283	97.443336	1209.497828
0.081000	81.968217	4017.741676	-156.665257	0.305869	0.000000	0.432425	-1737.373733	124.519221	1228.904092
0.082990	191.732616	4144.177391	-167.682944	0.307088	0.000000	0.432465	-1792.213612	173.729531	1272.627457
0.084432	265.849676	4176.129916	-169.620072	0.308507	0.000000	0.432571	-1806.471080	205.369116	1288.366509
0.085062	299.401788	4173.670202	-169.241607	0.309247	0.000000	0.432630	-1805.654030	219.047381	1290.695504
0.087052	370.156332	4123.271926	-162.445028	0.312359	0.000000	0.432915	-1785.026846	245.873079	1287.941527
0.088494	411.482846	4041.640925	-152.658488	0.315284	0.000000	0.433192	-1750.806482	259.767191	1274.265860
0.089124	429.334762	3993.236169	-146.087565	0.316717	0.000000	0.433335	-1730.410299	265.154711	1264.727463
0.091114	482.500105	3796.605172	-116.649124	0.321906	0.000000	0.433894	-1647.325065	278.454549	1222.151267
0.092556	519.413736	3619.499778	-86.059586	0.326359	0.000000	0.434406	-1572.331927	285.305108	1181.255850
0.093186	547.018298	3533.440307	-70.655320	0.328531	0.000000	0.434647	-1535.797890	291.477001	1160.845538
0.095176	605.674148	3238.115996	-46.414261	0.336175	0.000000	0.435388	-1409.837496	303.368052	1088.575046
0.096618	602.309983	3014.304211	-31.706935	0.342134	0.000000	0.435920	-1313.996430	295.995152	1031.297289
0.097248	620.054333	2917.357513	-20.542778	0.345001	0.000000	0.436214	-1272.591978	298.529549	1006.489977
0.099237	634.012680	2617.996233	0.570724	0.354258	0.000000	0.437125	-1144.390619	293.477691	927.447230
0.100680	635.461677	2417.621237	10.463739	0.360848	0.000000	0.437803	-1058.443019	287.364294	872.394442
0.101309	632.927733	2339.264890	10.083159	0.363369	0.000000	0.438088	-1024.804522	285.032686	850.016297
0.103299	636.567693	2121.292459	16.763263	0.369203	0.000000	0.438692	-930.594890	282.016043	783.187397
0.104741	640.262429	1962.447394	25.196796	0.373204	0.000000	0.439105	-861.720310	279.614075	732.393788
0.105371	641.214569	1890.942499	29.791051	0.375041	0.000000	0.439305	-830.700141	277.996897	709.181345
0.107361	641.793867	1660.332218	43.510339	0.381455	0.000000	0.440026	-730.589654	271.913195	633.341652
0.108803	635.314544	1491.734866	51.835417	0.386497	0.000000	0.440598	-657.255699	265.059945	576.550802
0.109433	630.004933	1419.929662	54.703055	0.388672	0.000000	0.440850	-625.976086	261.206909	551.887406
0.111423	611.650441	1213.682955	65.876902	0.395068	0.000000	0.441635	-536.004507	247.595165	479.487896
0.112865	592.306232	1071.213978	72.487355	0.399673	0.000000	0.442211	-473.702633	235.594222	428.135213
0.113495	577.527855	1010.649582	71.802803	0.401461	0.000000	0.442424	-447.135439	228.881560	405.736751
0.115485	532.550081	841.171468	75.690649	0.405880	0.000000	0.443090	-372.714403	206.205940	341.414726
0.116927	496.803967	734.977337	80.038041	0.407616	0.000000	0.443191	-325.735473	187.952167	299.588407
0.117556	479.390177	692.547712	81.919510	0.407863	0.000000	0.443082	-306.855662	179.269733	282.464334
0.119546	420.576894	564.465512	86.393795	0.407570	0.000000	0.442673	-249.873631	151.009184	230.059459
0.120988	376.409195	481.942134	87.921118	0.405714	0.000000	0.442433	-213.227218	130.875815	195.530568
0.121618	354.879720	445.387341	87.553951	0.404701	0.000000	0.442297	-196.993431	121.534081	180.248920
0.123608	282.296654	329.831262	81.291515	0.400865	0.000000	0.441681	-145.680052	92.098194	132.217884
0.125050	218.786795	246.359630	74.818505	0.397344	0.000000	0.441085	-108.665644	66.775019	97.889441
0.125680	188.024741	210.731129	71.390872	0.395581	0.000000	0.440766	-92.883066	54.633976	83.361295
0.127670	97.429807	108.272620	50.989393	0.389657	0.000000	0.438963	-47.527690	22.899720	42.189186
0.129112	43.707707	49.019147	28.815583	0.385077	0.000000	0.436593	-21.401410	7.986244	18.876164
0.129742	25.113239	28.770654	18.397042	0.383017	0.000000	0.435181	-12.520453	3.882435	11.019649
0.131732	1.351930	1.842028	1.480182	0.377202	0.000000	0.429036	-0.790297	0.021700	0.694817
0.133174	0.050260	0.087285	0.078043	0.374579	0.000000	0.423117	-0.036932	-0.007968	0.032695
0.133804	0.007519	0.016176	0.014716	0.374312	0.000000	0.420357	-0.006800	-0.002348	0.006055
0.135793	0.000003	0.000037	0.000033	0.377774	0.000000	0.412314	-0.000015	-0.000011	0.000014
0.137236	-0.000000	0.000000	0.000000	0.385302	0.000000	0.408576	-0.000000	-0.000000	0.000000
0.137865	-0.000000	0.000000	0.000000	0.389986	0.000000	0.408037	-0.000000	-0.000000	0.000000
0.139855	-0.000000	0.000000	0.000000	0.408533	0.000000	0.411154	-0.000000	-0.000000	0.000000
0.141297	-0.000000	0.000000	0.000000	0.424609	0.000000	0.415696	-0.000000	-0.000000	0.000000
0.141927	-0.000000	0.000000	0.000000	NaN	0.000000	NaN	0.000000	0.000000	0.000000
0.143917	-0.000000	0.000000	-0.000000	NaN	0.000000	NaN	0.000000	0.000000	0.000000
0.145359	-0.000000	0.000000	-0.000000	NaN	0.000000	NaN	0.000000	0.000000	0.000000
0.145989	-0.000000	0.000000	-0.000000	NaN	0.000000	NaN	0.000000	0.000000	0.000000
0.147979	-0.000000	0.000000	-0.000000	NaN	0.000000	NaN	0.000000	0.000000	0.000000
0.149421	-0.000000	0.000000	-0.000000	NaN	0.000000	NaN	0.000000	0.000000	0.000000
0.150051	-0.000000	0.000000	0.000000	NaN	0.000000	NaN	0.000000	0.000000	0.000000
0.152040	-0.000000	0.000000	0.000000	NaN	0.000000	NaN	0.000000	0.000000	0.000000
0.153483	-0.000000	0.000000	0.000000	NaN	0.000000	NaN	0.000000	0.000000	0.000000
0.154112	-0.000000	0.000000	0.000000	NaN	0.000000	NaN	0.000000	0.000000	0.000000
0.156102	-0.000000	0.000000	0.000000	NaN	0.000000	NaN	0.000000	0.000000	0.000000
0.157544	-0.000000	0.000000	0.000000	NaN	0.000000	NaN	0.000000	0.000000	0.000000
0.158174	-0.000000	0.000000	0.000000	NaN	0.000000	NaN	0.000000	0.000000	0.000000
0.160164	-0.000000	0.000000	0.000000	NaN	0.000000	NaN	0.000000	0.000000	0.000000
0.161606	-0.000000	0.000000	0.000000	NaN	0.000000	NaN	0.000000	0.000000	0.000000
0.162236	-0.000000	0.000000	0.000000	NaN	0.000000	NaN	0.000000	0.000000	0.000000
0.164226	-0.000000	0.000000	0.000000	NaN	0.000000	NaN	0.000000	0.000000	0.000000
0.165668	-0.000000	0.000000	0.000000	NaN	0.000000	NaN	0.000000	0.000000	0.000000
0.166298	-0.000000	0.000000	0.000000	NaN	0.000000	NaN	0.000000	0.000000	0.000000
0.168288	-0.000000	0.000000	-0.000000	NaN	0.000000	NaN	0.000000	0.000000	0.000000
0.169730	-0.000000	0.000000	-0.000000	NaN	0.000000	NaN	0.000000	0.000000	0.000000
0.170360	-0.000000	0.000000	-0.000000	NaN	0.000000	NaN	0.000000	0.000000	0.000000
0.172349	-0.000000	0.000000	-0.000000	NaN	0.000000	NaN	0.000000	0.000000	0.000000
0.173792	-0.000000	0.000000	-0.000000	NaN	0.000000	NaN	0.000000	0.000000	0.000000
0.174421	-0.000000	0.000000	-0.000000	NaN	0.000000	NaN	0.000000	0.000000	0.000000
0.176411	-0.000000	0.000000	-0.000000	NaN	0.000000	NaN	0.000000	0.000000	0.000000
0.177853	-0.000000	0.000000	-0.000000	NaN	0.000000	NaN	0.000000	0.000000	0.000000
0.178483	-0.000000	0.000000	-0.000000	NaN	0.000000	NaN	0.000000	0.000000	0.000000
0.180473	-0.000000	0.000000	-0.000000	NaN	0.000000	NaN	0.000000	0.000000	0.000000
0.181915	-0.000000	0.000000	-0.000000	NaN	0.000000	NaN	0.000000	0.000000	0.000000
0.182545	-0.000000	0.000000	-0.000000	NaN	0.000000	NaN	0.000000	0.000000	0.000000
0.184535	-0.000000	0.000000	-0.000000	NaN	0.000000	NaN	0.000000	0.000000	0.000000
0.185977	-0.000000	0.000000	-0.000000	NaN	0.000000	NaN	0.000000	0.000000	0.000000
0.186607	-0.000000	0.000000	-0.000000	NaN	0.000000	NaN	0.000000	0.000000	0.000000
0.188596	-0.000000	0.000000	-0.000000	NaN	0.000000	NaN	0.000000	0.000000	0.000000
0.190039	-0.000000	0.000000	-0.000000	NaN	0.000000	NaN	0.000000	0.000000	0.000000
0.190668	-0.000000	0.000000	-0.000000	NaN	0.000000	NaN	0.000000	0.000000	0.000000
0.192658	-0.000000	0.000000	-0.000000	NaN	0.000000	NaN	0.000000	0.000000	0.000000
0.194100	-0.000000	0.000000	-0.000000	NaN	0.000000	NaN	0.000000	0.000000	0.000000
0.194730	-0.000000	0.000000	-0.000000	NaN	0.000000	NaN	0.000000	0.000000	0.000000
0.196720	-0.000000	0.000000	-0.000000	NaN	0.000000	NaN	0.000000	0.000000	0.000000
0.198162	-0.000000	0.000000	-0.000000	NaN	0.000000	NaN	0.000000	0.000000	0.000000
